# xmcd CD database file
#
# Track frame offsets:
#	150
#	7507
#	35149
#	58766
#	68582
#	137620
#	153321
#	176232
#	192791
#	200482
#	207618
#	222248
#	233038
#	246222
#	254455
#	260436
#	268535
#	299610
#
# Disc length: 4195 seconds
#
# Revision: 1
# Processed by: cddbd v1.5.2PL0 Copyright (c) Steve Scherf et al.
# Submitted via: CDex 1.50
#
DISCID=11106112
DTITLE=Loren Mazzacane Connors - Night Through
DYEAR=1900
DGENRE=Blues
TTITLE0=Why We Came Together
TTITLE1=Suzanne's Rain
TTITLE2=I've Had Trouble, I've Had Joy
TTITLE3=Untitled
TTITLE4=Haunted House
TTITLE5=Shadows
TTITLE6=Only When You Sleep
TTITLE7=Star of Bethlehem pt.1
TTITLE8=Star of Bethlehem pt.2
TTITLE9=I Love You Porgy
TTITLE10=Earth
TTITLE11=Stars
TTITLE12=Night in Vain
TTITLE13=Untitled
TTITLE14=Untitled
TTITLE15=Untitled
TTITLE16=For Miles Davis
TTITLE17=For Miles pt.2
EXTD=
EXTT0=
EXTT1=
EXTT2=
EXTT3=
EXTT4=
EXTT5=
EXTT6=
EXTT7=
EXTT8=
EXTT9=
EXTT10=
EXTT11=
EXTT12=
EXTT13=
EXTT14=
EXTT15=
EXTT16=
EXTT17=
PLAYORDER=
